<?xml version="1.0" encoding="UTF-8"?>
<!DOCTYPE svg  PUBLIC '-//W3C//DTD SVG 1.1//EN'  'http://www.w3.org/Graphics/SVG/1.1/DTD/svg11.dtd'>
<svg width="564.52px" height="220.27px" enable-background="new 0 0 564.521 220.271" version="1.1" viewBox="0 0 564.521 220.271" xml:space="preserve" xmlns="http://www.w3.org/2000/svg">
<path d="m147.54 116.7c24.403 0 44.256 19.854 44.256 44.257s-19.853 44.257-44.256 44.257-44.256-19.854-44.256-44.257 19.853-44.257 44.256-44.257z" fill="#fff"/>
<path d="m122.4 105.94c9.631 0 17.466-7.835 17.466-17.465 0-9.631-7.835-17.468-17.466-17.468s-17.467 7.837-17.466 17.468c0 9.63 7.835 17.465 17.466 17.465z" fill="#fff"/>
<path d="m141.12 34.931c9.631 0 17.466-7.835 17.466-17.467 0-9.63-7.835-17.464-17.466-17.464-9.63 0-17.465 7.835-17.465 17.466s7.835 17.465 17.465 17.465z" fill="#fff"/>
<path d="m46.444 97.622c-9.631 0-17.466 7.836-17.466 17.465 0 9.631 7.835 17.466 17.466 17.466s17.465-7.835 17.465-17.466c0-9.63-7.834-17.465-17.465-17.465z" fill="#fff"/>
<path d="m314.96 120.36c-4.631 0-8.763 0.951-12.395 2.852-3.631 1.901-6.836 4.997-9.615 9.287h-1.023c0.682-7.507 1.023-12.796 1.023-15.868v-25.739h-28.59v113.78h22.302l4.534-8.117h1.754c2.486 2.73 4.668 4.682 6.545 5.852 1.876 1.17 4.009 2.084 6.398 2.742 2.388 0.656 5.116 0.985 8.188 0.985 9.505 0 16.929-3.813 22.266-11.442 5.338-7.628 8.005-18.17 8.005-31.625 1e-3 -13.356-2.643-23.813-7.931-31.369-5.29-7.556-12.444-11.333-21.461-11.333z" fill="#fff"/>
<path d="m90.113 25.009c-17.57 7.434-33.349 18.069-46.897 31.618-13.549 13.549-24.187 29.328-31.618 46.897-7.696 18.195-11.598 37.518-11.598 57.434 0 19.335 3.685 38.14 10.951 55.881 0.85 2.076 2.87 3.433 5.113 3.434 0.697 0 1.406-0.133 2.091-0.415 2.822-1.156 4.173-4.381 3.018-7.203-6.719-16.41-10.127-33.803-10.127-51.696 0-63.475 43.556-116.96 102.35-132.16-1.379-3.362-2.162-7.028-2.221-10.869-7.161 1.814-14.192 4.172-21.059 7.077z" fill="#E6602C"/>
<path d="m206.39 25.616c-11.387-4.958-23.229-8.391-35.39-10.328 0.052 0.72 0.088 1.444 0.088 2.178 0 3.066-0.465 6.025-1.324 8.813 11.068 1.807 21.848 4.952 32.216 9.466 2.797 1.218 6.051-0.063 7.269-2.859 1.218-2.797-0.062-6.052-2.859-7.27z" fill="#E6602C"/>
<path d="m32.279 160.96c0 15.105 2.878 29.793 8.556 43.657 0.849 2.076 2.87 3.433 5.113 3.432 3.051-1e-3 5.522-2.476 5.521-5.525 0-0.717-0.14-1.429-0.412-2.091-5.131-12.529-7.732-25.811-7.732-39.473 0-5.431 0.428-10.762 1.232-15.971-3.823-0.239-7.453-1.197-10.757-2.742-1.004 6.143-1.521 12.389-1.521 18.713z" fill="#65A8D6"/>
<path d="m193.52 55.226c-14.532-6.327-30-9.535-45.974-9.535-15.558 0-30.654 3.048-44.869 9.061-13.726 5.808-26.053 14.116-36.637 24.7-2.638 2.637-5.114 5.396-7.464 8.246 3.442 1.531 6.546 3.687 9.162 6.332 19.133-22.779 47.803-37.292 79.809-37.292 14.448 0 28.433 2.897 41.564 8.617 2.817 1.171 6.05-0.163 7.222-2.98 1.142-2.752-0.102-5.914-2.813-7.149z" fill="#65A8D6"/>
<path d="m88.863 102.28c-15.674 15.675-24.307 36.516-24.307 58.683 0 10.875 2.073 21.451 6.161 31.435 0.85 2.074 2.871 3.431 5.113 3.431 3.051-2e-3 5.523-2.478 5.521-5.529 0-0.717-0.14-1.426-0.412-2.089-3.541-8.646-5.336-17.813-5.336-27.247 0-21.146 9.183-40.177 23.757-53.349-2.414-2.902-4.287-6.268-5.473-9.938-1.725 1.459-3.407 2.986-5.024 4.603z" fill="#2486A1"/>
<path d="m180.65 84.833c-9.565-4.165-19.698-6.429-30.153-6.791 1.212 3.251 1.877 6.768 1.877 10.437 0 0.238-0.013 0.475-0.018 0.713 8.27 0.541 16.285 2.463 23.884 5.771 2.817 1.172 6.05-0.163 7.222-2.979 1.143-2.754-0.101-5.916-2.812-7.151z" fill="#2486A1"/>
<path d="m249.94 120.36c-4.338 0-8.641 1.351-12.907 4.057s-7.593 6.252-9.981 10.641h-1.389l-4.46-13.234h-21.278v82.847h28.59v-40.729c0-5.362 1.413-9.471 4.241-12.321 2.828-2.852 7.361-4.278 13.601-4.278 4.143 0 7.385 0.293 9.725 0.878l2.56-26.98-1.609-0.293c-2.242-0.394-4.607-0.588-7.093-0.588z" fill="#fff"/>
<path d="m560.07 75.372c-1e-3 0-1e-3 0 0 0h-93.308c-2.456 0-4.446 1.991-4.446 4.448v50.805c0 2.457 1.99 4.448 4.446 4.448h93.307c2.456 0 4.447-1.991 4.447-4.448v-50.806c1e-3 -2.456-1.99-4.447-4.446-4.447zm-60.369 17.982h-13.617v7.998h12.555v9.086h-12.555v15.736h-11.147v-41.907h24.766l-2e-3 9.087zm52.199 32.822h-10.405v-18.375c0-0.956 0.015-2.017 0.043-3.182 0.028-1.166 0.157-4.021 0.387-8.571h-0.258l-8.456 30.127h-10.775l-8.572-30.184h-0.258c0.399 5.14 0.602 9.134 0.602 11.981v18.201h-10.032v-41.906h15.078l8.742 29.755h0.229l8.571-29.755h15.106l-2e-3 41.909z" fill="#fff"/>
<path d="m429.27 175.49v-32.247h20.328v-21.424h-20.328v-16.599h-18.719l-7.386 17.401-12.726 8.994v11.626h10.02v34.147c0 9.75 2.12 16.977 6.362 21.681 4.24 4.704 11.163 7.056 20.767 7.056 4.68 0 8.762-0.354 12.247-1.061 3.485-0.706 7.153-1.888 11.005-3.546v-20.839c-5.363 1.899-9.969 2.852-13.82 2.852-5.168 2e-3 -7.75-2.679-7.75-8.041z" fill="#fff"/>
<path d="m380.88 91.694c-2.438-2.146-6.313-3.218-11.626-3.218-5.315 0-9.165 1.049-11.553 3.145-2.392 2.097-3.583 5.29-3.583 9.579 0 8.384 5.045 12.577 15.135 12.576 10.188 0 15.283-4.192 15.283-12.577 0-4.192-1.219-7.359-3.656-9.505z" fill="#fff"/>
<rect x="354.85" y="121.82" width="28.59" height="82.847" fill="#fff"/>
</svg>
