<svg fill="#fff" xmlns="http://www.w3.org/2000/svg" width="564.521" height="220.271"><path d="M147.545 116.701c24.403 0 44.256 19.854 44.256 44.257s-19.853 44.257-44.256 44.257-44.256-19.854-44.256-44.257 19.853-44.257 44.256-44.257z"/><path d="M75.83 195.822a5.525 5.525 0 0 0 5.109-7.618c-3.541-8.647-5.336-17.814-5.336-27.247 0-39.669 32.273-71.943 71.943-71.943 9.975 0 19.627 2.001 28.691 5.947a5.524 5.524 0 0 0 4.41-10.128c-10.463-4.556-21.6-6.865-33.101-6.865-22.167 0-43.008 8.632-58.683 24.307-15.674 15.675-24.307 36.516-24.307 58.683 0 10.875 2.073 21.451 6.161 31.433a5.524 5.524 0 0 0 5.113 3.431z"/><path d="M45.948 208.047a5.524 5.524 0 0 0 5.109-7.618c-5.131-12.529-7.732-25.809-7.732-39.471 0-57.467 46.754-104.221 104.221-104.221 14.448 0 28.433 2.899 41.564 8.617a5.524 5.524 0 0 0 4.41-10.128c-14.532-6.327-30-9.535-45.974-9.535-15.558 0-30.654 3.048-44.869 9.061-13.726 5.806-26.053 14.116-36.637 24.7-10.585 10.584-18.895 22.911-24.701 36.637-6.012 14.215-9.06 29.311-9.06 44.869 0 15.105 2.878 29.793 8.556 43.657a5.522 5.522 0 0 0 5.113 3.432z"/><path d="M16.064 220.271c.697 0 1.406-.133 2.091-.415a5.523 5.523 0 0 0 3.018-7.203c-6.719-16.41-10.127-33.803-10.127-51.696 0-75.266 61.233-136.499 136.499-136.499 18.922 0 37.238 3.797 54.438 11.286a5.523 5.523 0 0 0 4.41-10.128c-18.599-8.099-38.398-12.204-58.847-12.204-19.916 0-39.239 3.902-57.433 11.597-17.57 7.432-33.349 18.069-46.897 31.618-13.549 13.549-24.187 29.328-31.618 46.897C3.902 121.719 0 141.042 0 160.958c0 19.335 3.685 38.138 10.951 55.881a5.526 5.526 0 0 0 5.113 3.432z"/><path d="M122.405 71.011c9.631 0 17.466 7.835 17.466 17.466 0 9.63-7.835 17.465-17.466 17.465s-17.466-7.835-17.466-17.465c-.001-9.631 7.835-17.466 17.466-17.466zM46.444 97.622c9.631 0 17.465 7.835 17.465 17.465 0 9.631-7.834 17.466-17.465 17.466s-17.466-7.835-17.466-17.466c0-9.629 7.835-17.465 17.466-17.465zm77.216-80.156C123.66 7.835 131.495 0 141.125 0c9.631 0 17.466 7.835 17.466 17.466 0 9.63-7.835 17.465-17.466 17.465-9.63 0-17.465-7.835-17.465-17.465zm23.885 99.235c24.403 0 44.256 19.854 44.256 44.257s-19.853 44.257-44.256 44.257-44.256-19.854-44.256-44.257 19.853-44.257 44.256-44.257z"/><path d="M75.83 195.822a5.525 5.525 0 0 0 5.109-7.618c-3.541-8.647-5.336-17.814-5.336-27.247 0-39.669 32.273-71.943 71.943-71.943 9.975 0 19.627 2.001 28.691 5.947a5.524 5.524 0 0 0 4.41-10.128c-10.463-4.556-21.6-6.865-33.101-6.865-22.167 0-43.008 8.632-58.683 24.307-15.674 15.675-24.307 36.516-24.307 58.683 0 10.875 2.073 21.451 6.161 31.433a5.524 5.524 0 0 0 5.113 3.431z"/><path d="M45.948 208.047a5.524 5.524 0 0 0 5.109-7.618c-5.131-12.529-7.732-25.809-7.732-39.471 0-57.467 46.754-104.221 104.221-104.221 14.448 0 28.433 2.899 41.564 8.617a5.524 5.524 0 0 0 4.41-10.128c-14.532-6.327-30-9.535-45.974-9.535-15.558 0-30.654 3.048-44.869 9.061-13.726 5.806-26.053 14.116-36.637 24.7-10.585 10.584-18.895 22.911-24.701 36.637-6.012 14.215-9.06 29.311-9.06 44.869 0 15.105 2.878 29.793 8.556 43.657a5.522 5.522 0 0 0 5.113 3.432z"/><path d="M16.064 220.271c.697 0 1.406-.133 2.091-.415a5.523 5.523 0 0 0 3.018-7.203c-6.719-16.41-10.127-33.803-10.127-51.696 0-75.266 61.233-136.499 136.499-136.499 18.922 0 37.238 3.797 54.438 11.286a5.523 5.523 0 0 0 4.41-10.128c-18.599-8.099-38.398-12.204-58.847-12.204-19.916 0-39.239 3.902-57.433 11.597-17.57 7.432-33.349 18.069-46.897 31.618-13.549 13.549-24.187 29.328-31.618 46.897C3.902 121.719 0 141.042 0 160.958c0 19.335 3.685 38.138 10.951 55.881a5.526 5.526 0 0 0 5.113 3.432z"/><path d="M122.405 71.011c9.631 0 17.466 7.835 17.466 17.466 0 9.63-7.835 17.465-17.466 17.465s-17.466-7.835-17.466-17.465c-.001-9.631 7.835-17.466 17.466-17.466zM46.444 97.622c9.631 0 17.465 7.835 17.465 17.465 0 9.631-7.834 17.466-17.465 17.466s-17.466-7.835-17.466-17.466c0-9.629 7.835-17.465 17.466-17.465zm77.216-80.156C123.66 7.835 131.495 0 141.125 0c9.631 0 17.466 7.835 17.466 17.466 0 9.63-7.835 17.465-17.466 17.465-9.63 0-17.465-7.835-17.465-17.465zm436.412 57.906h-93.305a4.448 4.448 0 0 0-4.448 4.448v50.805a4.448 4.448 0 0 0 4.448 4.448h93.305a4.448 4.448 0 0 0 4.448-4.448V79.819a4.447 4.447 0 0 0-4.448-4.447zm-60.369 17.982h-13.616v7.998h12.555v9.086h-12.555v15.738h-11.149V84.267h24.766v9.087zm52.2 32.822h-10.405v-18.375c0-.956.015-2.017.043-3.182.028-1.166.157-4.023.387-8.571h-.258l-8.456 30.127h-10.777l-8.572-30.184h-.258c.401 5.14.602 9.134.602 11.981v18.203h-10.032V84.267h15.078l8.742 29.755h.229l8.571-29.755h15.106v41.909zm-301.96-5.818c2.486 0 4.851.195 7.093.584l1.609.293-2.56 26.982c-2.34-.585-5.582-.878-9.725-.878-6.24 0-10.773 1.426-13.601 4.278s-4.241 6.959-4.241 12.321v40.729h-28.59V121.82h21.278l4.46 13.234h1.389c2.388-4.387 5.715-7.933 9.981-10.639s8.569-4.057 12.907-4.057zM354.114 101.2c0-4.289 1.193-7.482 3.583-9.579 2.388-2.096 6.238-3.145 11.553-3.145 5.313 0 9.188 1.073 11.626 3.218 2.437 2.146 3.656 5.313 3.656 9.505 0 8.385-5.095 12.577-15.283 12.577-10.09.001-15.135-4.192-15.135-12.576zm29.322 103.467h-28.59V121.82h28.59v82.847zm53.58-21.132c3.851 0 8.457-.951 13.82-2.852v20.839c-3.852 1.658-7.52 2.84-11.005 3.546-3.485.707-7.567 1.061-12.247 1.061-9.604 0-16.525-2.352-20.767-7.056s-6.362-11.931-6.362-21.681v-34.147h-10.018v-11.626l12.724-8.994 7.386-17.403h18.719v16.599h20.328v21.424h-20.328v32.247c0 5.362 2.582 8.043 7.75 8.043zM336.42 131.691c-5.291-7.556-12.445-11.333-21.462-11.333-4.631 0-8.763.951-12.394 2.852-3.632 1.901-6.837 4.997-9.616 9.287h-1.023c.682-7.507 1.023-12.796 1.023-15.868V90.89h-28.59v113.777h22.302l4.534-8.117h1.754c2.486 2.73 4.668 4.68 6.545 5.85 1.876 1.17 4.009 2.084 6.398 2.742 2.388.658 5.118.987 8.189.987 9.505 0 16.929-3.814 22.266-11.444 5.338-7.628 8.005-18.17 8.005-31.625.001-13.356-2.643-23.812-7.931-31.369z"/></svg>
